<?xml version="1.0" encoding="UTF-8"?>
<svg version="1.1" xmlns="http://www.w3.org/2000/svg" width="512" height="512">
<path d="M0 0 C0.69818848 0.1556543 1.39637695 0.31130859 2.11572266 0.47167969 C24.30519185 5.66286534 43.86874457 17.25286477 61 32 C61.92941406 32.7940625 62.85882813 33.588125 63.81640625 34.40625 C91.05673357 58.35045983 106.9013857 93.2626422 109.54638672 129.20068359 C111.99581303 169.11192414 100.03646728 206.86106639 73.6875 237.0625 C67.08498404 244.22962902 59.91353588 250.88893007 52.125 256.75 C42.6403263 264.00902825 36.78886358 274.10197712 35 286 C34.3269317 292.35501698 34 298.60718244 34 305 C-10.88 305 -55.76 305 -102 305 C-102.33 298.4 -102.66 291.8 -103 285 C-106.24600263 270.23068804 -114.58114052 260.22671457 -126.359375 251.0859375 C-134.99988526 244.26044567 -142.35133849 236.76760516 -149 228 C-149.59296875 227.22269531 -150.1859375 226.44539062 -150.796875 225.64453125 C-173.73572301 194.23514533 -181.96019726 155.47181994 -176.47631836 117.21899414 C-172.28516169 91.13634335 -161.0650488 68.06751699 -144 48 C-143.18917969 47.04222656 -142.37835938 46.08445313 -141.54296875 45.09765625 C-107.46389136 5.86989559 -50.27502179 -11.34912277 0 0 Z M-55.625 44.375 C-58.78320125 48.33528411 -59.60227892 53.2270142 -60.71484375 58.07421875 C-62 61 -62 61 -64.95703125 62.89453125 C-68.71841606 64.26099069 -70.17109434 64.17812482 -74 63 C-75.61152693 62.1598022 -77.21503312 61.30413196 -78.8125 60.4375 C-83.51131153 58.00683659 -87.75387179 56.65126136 -93 58 C-98.75169285 61.18987563 -103.13768958 65.80541123 -107.75 70.4375 C-108.90048828 71.56381836 -108.90048828 71.56381836 -110.07421875 72.71289062 C-110.80769531 73.44572266 -111.54117188 74.17855469 -112.296875 74.93359375 C-112.96041992 75.59415771 -113.62396484 76.25472168 -114.30761719 76.93530273 C-117.16126949 80.41674208 -118 83.14052029 -118 87.625 C-117.28169934 92.47813395 -114.7547014 96.28686943 -112.1796875 100.38671875 C-110.75443085 103.54399259 -110.94502398 104.74801082 -112 108 C-112.20109375 108.87914062 -112.4021875 109.75828125 -112.609375 110.6640625 C-114.34250384 113.57532949 -116.01304604 113.99640194 -119.20654297 114.86206055 C-119.88088379 115.03133057 -120.55522461 115.20060059 -121.25 115.375 C-127.81150048 117.2611402 -131.27622981 119.19529941 -135 125 C-137.26491514 129.52983027 -136.2301478 135.77702497 -136.25 140.75 C-136.270625 142.02617187 -136.29125 143.30234375 -136.3125 144.6171875 C-136.31765625 145.85210937 -136.3228125 147.08703125 -136.328125 148.359375 C-136.3374707 149.48827148 -136.34681641 150.61716797 -136.35644531 151.78027344 C-135.82382803 156.59133968 -134.14096565 159.86686258 -130.72265625 163.26171875 C-127.64233749 165.22834981 -124.98572981 165.97786425 -121.4375 166.8125 C-114.31572706 168.86111872 -114.31572706 168.86111872 -112.125 172.4375 C-110.64370643 177.12826297 -111.20496884 179.46150727 -113.4453125 183.796875 C-113.99960938 184.77140625 -114.55390625 185.7459375 -115.125 186.75 C-117.40914564 191.29606116 -119.03901907 194.71678607 -117.98828125 199.796875 C-115.77648027 204.72753015 -111.80506047 208.26694213 -108 212 C-107.02992899 213.00006641 -106.06253913 214.00273956 -105.09765625 215.0078125 C-98.2971879 222.55399881 -98.2971879 222.55399881 -89 225.5625 C-84.4095284 225.53229953 -81.78641551 223.80457959 -78 221.3125 C-72.76398536 218.02243716 -72.76398536 218.02243716 -69.33984375 217.921875 C-66.03871557 218.80217585 -63.79469444 219.75325112 -61.921875 222.69140625 C-61.13241341 224.77004182 -60.56885221 226.85100276 -60 229 C-57.60893312 235.48244798 -55.42768873 239.78615563 -49 243 C-44.79070297 243.25818446 -40.57753416 243.27105373 -36.36132812 243.29516602 C-34.27145952 243.31232382 -32.18319666 243.35620219 -30.09375 243.40039062 C-28.75521993 243.41052311 -27.41667644 243.41903748 -26.078125 243.42578125 C-24.86543945 243.44036377 -23.65275391 243.45494629 -22.40332031 243.4699707 C-17.57692395 242.80348484 -14.48339261 240.6242003 -11.23046875 237.0625 C-9.84875755 234.74648884 -9.05874281 232.59013376 -8.3125 230 C-8.06113281 229.154375 -7.80976563 228.30875 -7.55078125 227.4375 C-6.85306346 224.76621984 -6.85306346 224.76621984 -7 221 C-5.906875 220.690625 -4.81375 220.38125 -3.6875 220.0625 C-1.44592006 219.41662103 0.7869351 218.7376883 3 218 C5.8203125 219.43359375 5.8203125 219.43359375 9.125 221.4375 C13.73111569 224.06947442 17.53129649 225.77553309 22.90234375 225.63671875 C29.55099623 223.61859891 34.4136169 217.95258332 39.1875 213.1875 C39.89841797 212.50107422 40.60933594 211.81464844 41.34179688 211.10742188 C46.53037441 205.94813076 49.93787548 201.78959546 50.0625 194.1875 C49.30461667 189.60453495 46.80803262 186.1432539 44.1796875 182.39453125 C42.71009229 179.41154494 43.0696666 178.13161406 44 175 C44.33944795 173.00102872 44.67421616 171.00124361 45 169 C45.6290625 168.90203125 46.258125 168.8040625 46.90625 168.703125 C54.10875431 167.44485618 60.28776062 165.85132858 65.4375 160.4375 C69.18760606 154.58733455 68.26188476 147.90582963 68.3125 141.1875 C68.34150391 139.91583984 68.37050781 138.64417969 68.40039062 137.33398438 C68.61137612 128.29210579 68.61137612 128.29210579 64 121 C60.33417602 117.43838841 57.32110433 116.38699853 52.375 115.3125 C46.56460066 113.60044832 46.56460066 113.60044832 44.27734375 111.16796875 C43.10443624 108.53248831 42.79822845 106.88919687 43 104 C44.25006735 100.77524999 45.78459399 97.87604295 47.48046875 94.86328125 C49.55441469 90.955306 50.07613714 88.41595413 50 84 C47.71715847 77.60427044 42.80270285 73.39652296 38.0625 68.75 C36.84530273 67.52796875 36.84530273 67.52796875 35.60351562 66.28125 C29.33625837 59.81899377 29.33625837 59.81899377 20.9375 57.5 C15.63821095 57.56121291 12.02324703 59.94481194 7.67578125 62.78515625 C4.28123556 64.32632955 2.57157016 63.89406278 -1 63 C-1.94875 62.814375 -2.8975 62.62875 -3.875 62.4375 C-4.57625 62.293125 -5.2775 62.14875 -6 62 C-6.17015625 61.20335937 -6.3403125 60.40671875 -6.515625 59.5859375 C-8.46079943 51.08097273 -10.57732207 45.13877703 -18 40 C-23.10693548 38.29768817 -28.4662538 38.77320671 -33.8125 38.75 C-35.5769043 38.7190625 -35.5769043 38.7190625 -37.37695312 38.6875 C-44.98519599 38.65309302 -49.81302847 39.11654956 -55.625 44.375 Z " fill="#B000FF" transform="translate(290,105)"/>
<path d="M0 0 C0.83265381 0.00523682 1.66530762 0.01047363 2.52319336 0.01586914 C3.42231445 0.0190918 4.32143555 0.02231445 5.24780273 0.02563477 C6.66609375 0.03820312 6.66609375 0.03820312 8.11303711 0.05102539 C9.53712891 0.05779297 9.53712891 0.05779297 10.98999023 0.06469727 C13.34356776 0.07652429 15.69702188 0.09300514 18.05053711 0.11352539 C18.73116211 1.94463867 18.73116211 1.94463867 19.42553711 3.81274414 C20.5760549 6.87741566 21.75095591 9.92074388 23.05053711 12.92602539 C23.35991211 13.6543457 23.66928711 14.38266602 23.98803711 15.13305664 C27.42913121 21.54715483 34.49020837 23.04678698 41.05053711 25.11352539 C47.67589718 26.7054847 52.69014931 23.54219251 58.31616211 20.32836914 C61.37952843 18.96735925 62.01750785 18.99192115 65.05053711 20.11352539 C66.60620117 21.32861328 66.60620117 21.32861328 68.06616211 22.83618164 C68.59467773 23.37436523 69.12319336 23.91254883 69.66772461 24.46704102 C70.20655273 25.03100586 70.74538086 25.5949707 71.30053711 26.17602539 C71.85483398 26.74385742 72.40913086 27.31168945 72.98022461 27.89672852 C74.34387925 29.29565008 75.69814128 30.70371653 77.05053711 32.11352539 C75.7469595 35.56525202 74.18815019 38.66304057 72.36303711 41.86352539 C69.12896031 48.37006566 69.84549478 52.47540141 72.07397461 59.20336914 C74.24353207 64.90363955 75.81267876 68.69753081 81.05053711 72.11352539 C84.60368296 73.64849269 84.60368296 73.64849269 88.36303711 74.86352539 C90.56991211 75.60602539 92.77678711 76.34852539 95.05053711 77.11352539 C95.05053711 84.04352539 95.05053711 90.97352539 95.05053711 98.11352539 C87.86303711 100.23852539 87.86303711 100.23852539 85.62792969 100.86401367 C79.45432189 102.80988816 76.58472959 106.36754319 73.43334961 112.00805664 C70.6886598 118.37539603 68.79032114 123.36611596 71.05053711 130.11352539 C72.87251139 134.24300007 74.90105971 138.13470552 77.05053711 142.11352539 C72.43053711 146.73352539 67.81053711 151.35352539 63.05053711 156.11352539 C56.40080449 153.89694785 56.40080449 153.89694785 53.48803711 152.05102539 C49.68139133 149.90546141 47.01429495 148.77074874 42.65600586 149.53149414 C31.19105687 152.94172755 31.19105687 152.94172755 23.05053711 161.11352539 C21.89654135 164.24048164 20.85813186 167.37955051 19.88256836 170.56665039 C19.05053711 173.11352539 19.05053711 173.11352539 18.05053711 174.11352539 C16.48880966 174.20038142 14.92324367 174.22054759 13.35913086 174.21118164 C12.41489258 174.20795898 11.4706543 174.20473633 10.49780273 174.20141602 C9.50458008 174.19303711 8.51135742 174.1846582 7.48803711 174.17602539 C6.49094727 174.17151367 5.49385742 174.16700195 4.46655273 174.16235352 C1.99448862 174.15052546 -0.47745807 174.13404388 -2.94946289 174.11352539 C-3.15700195 173.17250977 -3.36454102 172.23149414 -3.57836914 171.26196289 C-5.63702597 162.08918379 -5.63702597 162.08918379 -11.70336914 155.29711914 C-21.19776375 150.09248033 -21.19776375 150.09248033 -31.69946289 149.48852539 C-35.78758924 150.76841762 -39.34966574 152.92713894 -42.90649414 155.28540039 C-44.94946289 156.11352539 -44.94946289 156.11352539 -46.82055664 155.63696289 C-49.94227541 153.4030724 -52.53220974 150.73873139 -55.19946289 147.98852539 C-56.0309082 147.14354492 -56.0309082 147.14354492 -56.87915039 146.28149414 C-58.24050774 144.89666511 -59.59561148 143.50569335 -60.94946289 142.11352539 C-60.43254883 141.13512695 -59.91563477 140.15672852 -59.38305664 139.14868164 C-54.44968478 130.18062977 -54.44968478 130.18062977 -54.17211914 120.30102539 C-54.42864258 119.57915039 -54.68516602 118.85727539 -54.94946289 118.11352539 C-55.27817383 117.18540039 -55.60688477 116.25727539 -55.94555664 115.30102539 C-58.15849152 109.8448712 -60.45242657 104.80898335 -65.94946289 102.11352539 C-70.25028282 100.5635879 -74.53397784 99.33003658 -78.94946289 98.11352539 C-78.94946289 91.18352539 -78.94946289 84.25352539 -78.94946289 77.11352539 C-71.19946289 74.42602539 -71.19946289 74.42602539 -68.77856445 73.61474609 C-62.81303708 71.45919219 -60.22695863 68.79962828 -57.46508789 62.99243164 C-57.04743164 61.89801758 -56.62977539 60.80360352 -56.19946289 59.67602539 C-55.77149414 58.58418945 -55.34352539 57.49235352 -54.90258789 56.36743164 C-53.4511582 51.41234587 -53.26223217 48.52486263 -55.55102539 43.82446289 C-56.90369433 41.59438708 -58.2578698 39.36522439 -59.61352539 37.13696289 C-60.94946289 34.11352539 -60.94946289 34.11352539 -60.49243164 32.07836914 C-58.34335976 29.34170292 -56.06870789 26.78444093 -53.63696289 24.30102539 C-53.16323242 23.78604492 -52.68950195 23.27106445 -52.20141602 22.74047852 C-50.77368164 21.28149414 -50.77368164 21.28149414 -47.94946289 19.11352539 C-44.07377979 19.13752343 -41.05128413 20.94168855 -37.63696289 22.67602539 C-32.95589038 24.79869258 -29.06783798 26.48188963 -23.94946289 25.11352539 C-16.44690226 22.15310124 -9.94700343 19.5242792 -5.94946289 12.11352539 C-4.89938821 9.20065501 -4.89938821 9.20065501 -4.26196289 6.30102539 C-2.77894529 0.16182963 -2.77894529 0.16182963 0 0 Z M-22.94946289 47.11352539 C-23.58110352 47.5530957 -24.21274414 47.99266602 -24.86352539 48.44555664 C-34.01857178 55.44291589 -40.23073706 67.82133604 -41.94946289 79.11352539 C-43.20066898 95.91791825 -40.0167277 108.7012783 -29.36352539 122.10961914 C-20.6358124 131.66752922 -7.56734918 137.329141 5.21850586 138.27368164 C18.92857171 138.7750036 31.9412294 133.73962677 42.36303711 124.92602539 C52.09423262 115.58532729 57.98124262 104.04254119 58.52099609 90.51416016 C58.70603764 75.86835138 54.17250768 64.78631703 45.80053711 52.92602539 C35.73580578 42.63255017 22.69701177 37.45448566 8.42553711 36.73852539 C-2.83972408 37.0228222 -13.89400346 40.43133692 -22.94946289 47.11352539 Z " fill="#B000FF" transform="translate(247.949462890625,158.886474609375)"/>
<path d="M0 0 C44.88 0 89.76 0 136 0 C136 17.67618103 135.99011333 30.34627053 123.82421875 43.3203125 C115.90947109 50.72928181 107.06037144 55.20858293 96.08349609 55.30639648 C95.41914551 55.31472 94.75479492 55.32304352 94.0703125 55.33161926 C91.88795994 55.35558386 89.70590744 55.36447677 87.5234375 55.37109375 C85.99134236 55.38007399 84.45924804 55.38919606 82.92715454 55.39845276 C79.71785359 55.41491117 76.50865652 55.42263646 73.29931641 55.42553711 C69.21755238 55.43090199 65.1367869 55.46851565 61.05530357 55.51428127 C57.88937971 55.54426006 54.72368961 55.55126521 51.55763626 55.55226326 C50.05473915 55.55642843 48.55183889 55.56871109 47.04908371 55.58978081 C32.87736076 55.77258447 21.67441284 52.36534825 11.35546875 42.4140625 C-0.23473308 29.91424989 0 16.63588415 0 0 Z " fill="#B000FF" transform="translate(188,425)"/>
<path d="M0 0 C7.441962 6.28495831 11.40907905 14.7454624 12.41796875 24.37109375 C12.74988198 35.26891145 11.012398 43.5218009 4.03515625 52.03125 C-3.13478135 59.48608578 -12.30658175 63.7635448 -22.65234375 63.96875 C-32.46472491 63.83752945 -40.87182206 60.34537776 -48.09765625 53.78125 C-55.41617117 46.21968477 -58.12524948 38.68249839 -58.46484375 28.21875 C-58.12399691 17.3776214 -54.7972481 8.38704683 -46.96484375 0.71875 C-32.8479254 -10.01287145 -14.49941771 -10.43344343 0 0 Z " fill="#AF00FF" transform="translate(278.96484375,218.28125)"/>
<path d="M0 0 C6.86731749 5.03449965 12.87070403 11.55512855 18.9375 17.5 C19.41743408 17.95681152 19.89736816 18.41362305 20.3918457 18.88427734 C21.80551356 20.23087772 23.19798898 21.59961535 24.58984375 22.96875 C25.41347412 23.76732422 26.23710449 24.56589844 27.08569336 25.38867188 C29.47226194 28.64421805 29.83082072 31.00005625 30 35 C28.65437601 37.94755732 27.91445456 39.54277272 25 41 C21.63671657 41.53812535 19.13605085 41.78523709 16.23852539 39.7824707 C15.63516357 39.23163818 15.03180176 38.68080566 14.41015625 38.11328125 C13.36601563 37.16026123 13.36601563 37.16026123 12.30078125 36.18798828 C7.98805974 32.08669263 3.76149233 27.90489551 -0.4375 23.6875 C-1.34693359 22.78193359 -2.25636719 21.87636719 -3.19335938 20.94335938 C-4.05638672 20.07904297 -4.91941406 19.21472656 -5.80859375 18.32421875 C-6.59032959 17.54135498 -7.37206543 16.75849121 -8.17749023 15.9519043 C-11.12577754 12.79429452 -11.40666345 10.30186219 -11.34375 5.9765625 C-11 4 -11 4 -8.875 1.5 C-5.3405323 -0.3440701 -3.92618718 -0.84682469 0 0 Z " fill="#9100FF" transform="translate(113,92)"/>
<path d="M0 0 C2.70216256 1.56011372 4.7398624 3.61594143 6.90625 5.84375 C7.51641968 6.44626587 8.12658936 7.04878174 8.75524902 7.66955566 C10.03548539 8.94436625 11.30574703 10.22926382 12.56640625 11.5234375 C14.49481285 13.49469758 16.462204 15.41960708 18.4375 17.34375 C19.67965636 18.59119315 20.91932859 19.84111587 22.15625 21.09375 C22.74361938 21.66492554 23.33098877 22.23610107 23.93615723 22.82458496 C26.8740087 25.90097467 28.35882762 27.93708333 28.43164062 32.27929688 C27.79770222 37.74378853 27.79770222 37.74378853 25 40 C21.35107405 41.01359054 19.10610892 41.54044858 15.64355469 39.84863281 C12.50864436 37.65639593 9.79697711 35.1586055 7.078125 32.484375 C6.53267029 31.95032043 5.98721558 31.41626587 5.42523193 30.86602783 C4.27957536 29.73918146 3.13673623 28.60946419 1.99658203 27.47705078 C0.25507919 25.75502239 -1.50658719 24.05550318 -3.26953125 22.35546875 C-4.38412558 21.25393123 -5.49745103 20.151108 -6.609375 19.046875 C-7.13537292 18.54557068 -7.66137085 18.04426636 -8.20330811 17.527771 C-11.80836709 13.87803297 -12.87462404 11.10718203 -13 6 C-10.24112333 -0.04325365 -6.45201294 -1.18587482 0 0 Z " fill="#CE00FF" transform="translate(382,360)"/>
<path d="M0 0 C0.89347641 -0.0038269 1.78695282 -0.00765381 2.70750427 -0.01159668 C4.59106578 -0.01431192 6.47466525 -0.00697793 8.3581543 0.00976562 C11.24027459 0.03120671 14.11990942 0.00993854 17.00195312 -0.015625 C18.83464091 -0.01298215 20.66732715 -0.00785805 22.5 0 C23.79074181 -0.01214539 23.79074181 -0.01214539 25.1075592 -0.02453613 C31.05451897 0.06867885 31.05451897 0.06867885 34.19897461 2.38085938 C36.14364667 5.19761181 36.6137666 7.10971942 36.68359375 10.53125 C35.07947527 14.06031067 33.94200013 15.35897908 30.68359375 17.53125 C27.76839543 17.7396902 24.95112226 17.83526474 22.03515625 17.83203125 C21.18561371 17.83631638 20.33607117 17.8406015 19.46078491 17.84501648 C17.66364431 17.85075864 15.86648047 17.85126088 14.06933594 17.84692383 C11.32576577 17.84376974 8.58328013 17.86720331 5.83984375 17.89257812 C4.09244927 17.89485179 2.34505191 17.8955543 0.59765625 17.89453125 C-0.22020355 17.903741 -1.03806335 17.91295074 -1.88070679 17.92243958 C-6.50913213 17.88503504 -9.55664679 17.53530422 -13.31640625 14.53125 C-14.88341067 11.39724115 -15.16805186 7.89969905 -14.31640625 4.53125 C-9.95162953 -0.15969666 -6.01650674 -0.05674651 0 0 Z " fill="#DB00FF" transform="translate(434.31640625,237.46875)"/>
<path d="M0 0 C1.20672867 -0.01913956 1.20672867 -0.01913956 2.43783569 -0.03866577 C3.73631943 -0.04200424 3.73631943 -0.04200424 5.06103516 -0.04541016 C5.95496979 -0.05206696 6.84890442 -0.05872375 7.76992798 -0.06558228 C9.66121361 -0.07570735 11.55253495 -0.08039934 13.44384766 -0.08007812 C16.33247032 -0.084446 19.21955841 -0.12075161 22.10791016 -0.15869141 C23.9464466 -0.16456072 25.7849903 -0.16852934 27.62353516 -0.17041016 C28.9159462 -0.19196671 28.9159462 -0.19196671 30.23446655 -0.21395874 C34.35130322 -0.18271519 36.45247258 -0.03597725 40.02246094 2.19433594 C41.97509766 4.29052734 41.97509766 4.29052734 42.56884766 6.29052734 C42.37364209 10.45491284 42.20380957 13.30097928 38.97509766 16.29052734 C35.091287 17.58513089 31.37723732 17.49240387 27.32666016 17.52880859 C26.47711761 17.53688034 25.62757507 17.54495209 24.75228882 17.55326843 C22.95515983 17.56709282 21.15800477 17.57782233 19.36083984 17.58569336 C16.6171692 17.60292016 13.87469958 17.64682135 11.13134766 17.69091797 C9.38396067 17.70104424 7.63656346 17.70956055 5.88916016 17.71630859 C4.66237045 17.74257072 4.66237045 17.74257072 3.41079712 17.7693634 C-0.53781107 17.75437548 -2.56694663 17.56663564 -6.0234375 15.48266602 C-8.76403226 12.48098264 -8.95325476 10.3027918 -9.02490234 6.29052734 C-7.53678234 1.70215732 -4.71298464 0.05084771 0 0 Z " fill="#8400FF" transform="translate(50.02490234375,237.70947265625)"/>
<path d="M0 0 C3.51812713 2.52387381 4.79040457 4.07428687 5.75 8.3125 C3.95615022 17.1322614 -6.14319795 24.29511854 -12.3125 30.4375 C-13.67084961 31.80165039 -13.67084961 31.80165039 -15.05664062 33.19335938 C-15.92095703 34.05638672 -16.78527344 34.91941406 -17.67578125 35.80859375 C-18.45864502 36.59032959 -19.24150879 37.37206543 -20.0480957 38.17749023 C-22.70682315 40.65996683 -23.67573299 40.96997528 -27.375 41.3125 C-31 41 -31 41 -33.375 39.4375 C-35.65353057 36.01970414 -36.2069511 34.139022 -36 30 C-34.83056641 28.26831055 -34.83056641 28.26831055 -33.1640625 26.44921875 C-32.525896 25.75199707 -31.88772949 25.05477539 -31.23022461 24.33642578 C-26.94560461 19.84777626 -22.58430579 15.44109955 -18.1875 11.0625 C-17.22444087 10.09587098 -16.26154919 9.1290751 -15.29882812 8.16210938 C-14.38939453 7.25396484 -13.47996094 6.34582031 -12.54296875 5.41015625 C-11.71821045 4.58652588 -10.89345215 3.76289551 -10.04370117 2.91430664 C-6.73226081 -0.18747377 -4.50337695 -0.52980905 0 0 Z " fill="#CE00FF" transform="translate(405,92)"/>
<path d="M0 0 C2.4375 1.0625 2.4375 1.0625 4 3 C5.0133135 6.64792859 5.53949567 8.89373014 3.85083008 12.35644531 C1.65107624 15.49837046 -0.86148652 18.20444211 -3.55078125 20.921875 C-4.08720749 21.46732971 -4.62363373 22.01278442 -5.17631531 22.57476807 C-6.30744784 23.72034609 -7.44135887 24.8631866 -8.57788086 26.00341797 C-10.30904119 27.74651734 -12.02065455 29.50741061 -13.73242188 31.26953125 C-14.83738771 32.38395784 -15.943471 33.49727782 -17.05078125 34.609375 C-17.55724686 35.13537292 -18.06371246 35.66137085 -18.58552551 36.20330811 C-21.90757233 39.48418197 -24.30572037 40.86579688 -29 41 C-34.61176471 38.77647059 -34.61176471 38.77647059 -36 36 C-36.77169929 29.33660571 -36.77169929 29.33660571 -34.96411133 26.20581055 C-33.44795234 24.39141665 -31.85142993 22.74219361 -30.15625 21.09375 C-29.55373413 20.48358032 -28.95121826 19.87341064 -28.33044434 19.24475098 C-27.05563375 17.96451461 -25.77073618 16.69425297 -24.4765625 15.43359375 C-22.50530242 13.50518715 -20.58039292 11.537796 -18.65625 9.5625 C-17.40880685 8.32034364 -16.15888413 7.08067141 -14.90625 5.84375 C-14.04948669 4.96269592 -14.04948669 4.96269592 -13.17541504 4.06384277 C-8.77516789 -0.13824923 -6.04938964 -0.70179271 0 0 Z " fill="#9100FF" transform="translate(138,360)"/>
<path d="M0 0 C0.66 -0.0103125 1.32 -0.020625 2 -0.03125 C5.08208878 0.78742983 6.08625184 1.9251833 8 4.5 C8.61795173 7.7134472 8.5842508 10.89169342 8.56640625 14.15625 C8.57570412 15.56517517 8.57570412 15.56517517 8.58518982 17.00256348 C8.59228614 18.98623621 8.58911726 20.96996852 8.57641602 22.95361328 C8.56254696 25.98972019 8.59662685 29.02274703 8.63476562 32.05859375 C8.6357168 33.98697992 8.63385808 35.91536995 8.62890625 37.84375 C8.64216446 38.75112915 8.65542267 39.6585083 8.66908264 40.59338379 C8.57628615 46.86969263 8.57628615 46.86969263 5.64819336 50.07226562 C2.38706075 51.83045715 0.65502185 52.10917031 -3 51.5 C-5.64819336 50.07226562 -5.64819336 50.07226562 -8 47.5 C-8.74468139 44.28531048 -8.67694202 41.13127206 -8.62890625 37.84375 C-8.63131821 36.90446655 -8.63373016 35.96518311 -8.63621521 34.99743652 C-8.63523674 33.01371026 -8.62184305 31.0299567 -8.59692383 29.04638672 C-8.56261808 26.01044941 -8.57626356 22.97742313 -8.59570312 19.94140625 C-8.58880455 18.01300845 -8.57913206 16.08461815 -8.56640625 14.15625 C-8.57384605 12.79518127 -8.57384605 12.79518127 -8.58143616 11.40661621 C-8.46407145 5.12437626 -8.46407145 5.12437626 -6.08959961 1.9296875 C-3.82947793 0.38333015 -2.71246096 -0.0423822 0 0 Z " fill="#AF00FF" transform="translate(256,31.5)"/>
</svg>
